<svg width="41" height="41" fill="none" xmlns="http://www.w3.org/2000/svg"><path d="M40.433 12.41a14.474 14.474 0 0 0-.93-4.913 10.22 10.22 0 0 0-5.836-5.836A14.643 14.643 0 0 0 28.822.73C26.689.635 26.013.608 20.6.608c-5.413 0-6.107 0-8.224.122a14.659 14.659 0 0 0-4.843.93 10.212 10.212 0 0 0-5.837 5.837 14.528 14.528 0 0 0-.928 4.844c-.096 2.134-.125 2.81-.125 8.224 0 5.413 0 6.104.125 8.223a14.62 14.62 0 0 0 .928 4.848 10.219 10.219 0 0 0 5.84 5.834c1.545.606 3.183.943 4.843.998 2.134.095 2.81.124 8.223.124s6.107 0 8.224-.124a14.608 14.608 0 0 0 4.846-.929 10.23 10.23 0 0 0 5.836-5.836c.583-1.552.896-3.188.929-4.848.095-2.133.124-2.809.124-8.224-.004-5.413-.004-6.1-.128-8.222ZM20.587 30.8a10.245 10.245 0 0 1-10.248-10.247 10.245 10.245 0 0 1 17.494-7.247A10.248 10.248 0 0 1 20.587 30.8Zm10.655-18.485a2.387 2.387 0 0 1-1.69-4.078 2.388 2.388 0 1 1 1.69 4.078Z" fill="#CCC"/></svg>